<svg width="134" height="48" viewBox="0 0 134 48" fill="none" xmlns="http://www.w3.org/2000/svg">
<path d="M57 17.1818V22.8636H42.625V17.1818H57ZM45.4091 11.9545H53.25V31.983C53.25 32.286 53.3021 32.5417 53.4062 32.75C53.5104 32.9489 53.6714 33.1004 53.8892 33.2045C54.107 33.2992 54.3864 33.3466 54.7273 33.3466C54.964 33.3466 55.2386 33.3182 55.5511 33.2614C55.8731 33.2045 56.1098 33.1572 56.2614 33.1193L57.3977 38.6307C57.0473 38.7348 56.5455 38.8627 55.892 39.0142C55.2481 39.1657 54.4811 39.2652 53.5909 39.3125C51.7917 39.4072 50.2813 39.2225 49.0597 38.7585C47.8381 38.285 46.9195 37.5417 46.304 36.5284C45.6884 35.5152 45.3902 34.2462 45.4091 32.7216V11.9545ZM70.4766 39.3977C68.1091 39.3977 66.0826 38.929 64.397 37.9915C62.7114 37.0445 61.4188 35.7282 60.5192 34.0426C59.6196 32.3475 59.1697 30.3826 59.1697 28.1477C59.1697 25.9129 59.6196 23.9527 60.5192 22.267C61.4188 20.572 62.7114 19.2557 64.397 18.3182C66.0826 17.3712 68.1091 16.8977 70.4766 16.8977C72.844 16.8977 74.8705 17.3712 76.5561 18.3182C78.2417 19.2557 79.5343 20.572 80.4339 22.267C81.3336 23.9527 81.7834 25.9129 81.7834 28.1477C81.7834 30.3826 81.3336 32.3475 80.4339 34.0426C79.5343 35.7282 78.2417 37.0445 76.5561 37.9915C74.8705 38.929 72.844 39.3977 70.4766 39.3977ZM70.5334 33.6023C71.1963 33.6023 71.7692 33.3797 72.2521 32.9347C72.7351 32.4896 73.1091 31.8551 73.3743 31.0312C73.6394 30.2074 73.772 29.2273 73.772 28.0909C73.772 26.9451 73.6394 25.965 73.3743 25.1506C73.1091 24.3267 72.7351 23.6922 72.2521 23.2472C71.7692 22.8021 71.1963 22.5795 70.5334 22.5795C69.8326 22.5795 69.2313 22.8021 68.7294 23.2472C68.2275 23.6922 67.844 24.3267 67.5788 25.1506C67.3137 25.965 67.1811 26.9451 67.1811 28.0909C67.1811 29.2273 67.3137 30.2074 67.5788 31.0312C67.844 31.8551 68.2275 32.4896 68.7294 32.9347C69.2313 33.3797 69.8326 33.6023 70.5334 33.6023Z" fill="#FA55C8"/>
<path d="M92.8629 39.2841C91.3099 39.2841 89.88 38.8769 88.5732 38.0625C87.2758 37.2481 86.2341 36.0123 85.4482 34.3551C84.6716 32.6979 84.2834 30.6098 84.2834 28.0909C84.2834 25.4583 84.6906 23.3182 85.505 21.6705C86.3288 20.0227 87.3894 18.8153 88.6868 18.0483C89.9936 17.2812 91.3667 16.8977 92.8061 16.8977C93.8857 16.8977 94.8326 17.0871 95.647 17.4659C96.4614 17.8352 97.1432 18.3324 97.6925 18.9574C98.2417 19.5729 98.6584 20.25 98.9425 20.9886H99.0561V9.90909H106.897V39H99.1129V35.4205H98.9425C98.6394 36.1591 98.2038 36.822 97.6357 37.4091C97.0769 37.9867 96.3951 38.446 95.5902 38.7869C94.7947 39.1184 93.8857 39.2841 92.8629 39.2841ZM95.7607 33.2614C96.4804 33.2614 97.0959 33.053 97.6072 32.6364C98.1281 32.2102 98.5258 31.6136 98.8004 30.8466C99.0845 30.0701 99.2266 29.1515 99.2266 28.0909C99.2266 27.0114 99.0845 26.0881 98.8004 25.321C98.5258 24.5445 98.1281 23.9527 97.6072 23.5455C97.0959 23.1288 96.4804 22.9205 95.7607 22.9205C95.041 22.9205 94.4254 23.1288 93.9141 23.5455C93.4122 23.9527 93.0239 24.5445 92.7493 25.321C92.4841 26.0881 92.3516 27.0114 92.3516 28.0909C92.3516 29.1705 92.4841 30.0985 92.7493 30.875C93.0239 31.642 93.4122 32.2339 93.9141 32.6506C94.4254 33.0578 95.041 33.2614 95.7607 33.2614ZM121.258 39.3977C118.89 39.3977 116.864 38.929 115.178 37.9915C113.493 37.0445 112.2 35.7282 111.3 34.0426C110.401 32.3475 109.951 30.3826 109.951 28.1477C109.951 25.9129 110.401 23.9527 111.3 22.267C112.2 20.572 113.493 19.2557 115.178 18.3182C116.864 17.3712 118.89 16.8977 121.258 16.8977C123.625 16.8977 125.652 17.3712 127.337 18.3182C129.023 19.2557 130.316 20.572 131.215 22.267C132.115 23.9527 132.565 25.9129 132.565 28.1477C132.565 30.3826 132.115 32.3475 131.215 34.0426C130.316 35.7282 129.023 37.0445 127.337 37.9915C125.652 38.929 123.625 39.3977 121.258 39.3977ZM121.315 33.6023C121.978 33.6023 122.55 33.3797 123.033 32.9347C123.516 32.4896 123.89 31.8551 124.156 31.0312C124.421 30.2074 124.553 29.2273 124.553 28.0909C124.553 26.9451 124.421 25.965 124.156 25.1506C123.89 24.3267 123.516 23.6922 123.033 23.2472C122.55 22.8021 121.978 22.5795 121.315 22.5795C120.614 22.5795 120.013 22.8021 119.511 23.2472C119.009 23.6922 118.625 24.3267 118.36 25.1506C118.095 25.965 117.962 26.9451 117.962 28.0909C117.962 29.2273 118.095 30.2074 118.36 31.0312C118.625 31.8551 119.009 32.4896 119.511 32.9347C120.013 33.3797 120.614 33.6023 121.315 33.6023Z" fill="#15A085"/>
<g clip-path="url(#clip0_4130_509)">
<path d="M19.0215 12.933C22.1472 16.9011 23.8158 21.7944 23.7553 26.8155V28.0141L24.7865 28.6416C26.119 29.4482 27.1127 30.6993 27.5866 32.1669C27.1705 31.8605 26.7352 31.5803 26.2833 31.3278L23.5333 29.7838L23.0391 32.9001C22.9963 33.1755 22.9389 33.4485 22.8672 33.718H15.1615C15.0469 33.3655 14.9538 33.0129 14.8679 32.6463L14.2448 29.8261L11.7097 31.2362C11.2861 31.473 10.8772 31.7344 10.4851 32.0188C10.9682 30.5682 11.9412 29.3242 13.2422 28.4935L14.2234 27.866V26.7521C14.2411 21.7513 15.9297 16.8952 19.0287 12.933H19.0215ZM19.0287 10C18.868 10.0004 18.7128 10.058 18.5918 10.1622L18.5274 10.2186C14.3978 14.7656 12.1047 20.6454 12.0821 26.745C10.3297 27.8643 9.03251 29.5543 8.41726 31.5197C7.80202 33.485 7.90783 35.6007 8.71619 37.4971C9.56776 35.6455 10.9913 34.1058 12.7839 33.0975C12.9637 33.8642 13.2031 34.6161 13.5 35.3467C13.5377 35.4871 13.6212 35.6114 13.7376 35.7006C13.8541 35.7898 13.9971 35.8388 14.1446 35.8402H24.0847C24.2852 35.8402 24.4857 35.6498 24.586 35.3537C24.8758 34.6592 25.0778 33.9322 25.1875 33.1892C26.9836 34.1932 28.4083 35.7342 29.2553 37.5887C30.1124 35.7017 30.2451 33.5727 29.6287 31.5967C29.0124 29.6206 27.6888 27.9319 25.9037 26.8437C25.9745 20.7082 23.6935 14.7718 19.5157 10.2186C19.4535 10.1501 19.3773 10.0952 19.2922 10.0576C19.2071 10.0199 19.1149 10.0003 19.0215 10H19.0287Z" fill="#FA55C8"/>
<path d="M19.0216 26.1598C18.4715 26.1598 17.9338 25.9995 17.4761 25.699C17.0185 25.3986 16.6614 24.9715 16.4499 24.4716C16.2385 23.9716 16.1821 23.4213 16.2878 22.8898C16.3936 22.3584 16.6568 21.8697 17.0442 21.4853C17.4317 21.1009 17.9261 20.838 18.465 20.7298C19.004 20.6216 19.5634 20.6729 20.0728 20.8773C20.5822 21.0816 21.0188 21.4298 21.3275 21.8781C21.6361 22.3263 21.8031 22.8545 21.8074 23.396V23.396C21.8159 23.7469 21.7542 24.0961 21.6256 24.4235C21.4971 24.751 21.3043 25.0503 21.0582 25.3043C20.8121 25.5583 20.5176 25.7622 20.1915 25.9041C19.8654 26.0461 19.5141 26.1234 19.1576 26.1316C19.1126 26.1387 19.0666 26.1387 19.0216 26.1316V26.1598Z" fill="#FA55C8"/>
<path d="M22.8959 37.5958C22.7167 37.5901 22.5382 37.6198 22.3708 37.683C22.2034 37.7462 22.0505 37.8416 21.9211 37.9638C21.7917 38.086 21.6884 38.2323 21.6172 38.3943C21.546 38.5563 21.5084 38.7307 21.5066 38.9072V43.067C21.5066 43.4297 21.653 43.7776 21.9135 44.0342C22.1741 44.2907 22.5274 44.4348 22.8959 44.4348C23.2644 44.4348 23.6178 44.2907 23.8783 44.0342C24.1389 43.7776 24.2852 43.4297 24.2852 43.067V38.9636C24.291 38.7877 24.2611 38.6126 24.1973 38.4482C24.1336 38.2839 24.0372 38.1337 23.9139 38.0064C23.7906 37.879 23.6428 37.7772 23.4791 37.7067C23.3154 37.6362 23.139 37.5985 22.9604 37.5958H22.8959Z" fill="#15A085"/>
<path d="M15.1615 37.5957C14.9793 37.5863 14.797 37.6129 14.6255 37.6742C14.4539 37.7355 14.2967 37.8302 14.163 37.9525C14.0294 38.0749 13.9221 38.2224 13.8476 38.3864C13.7731 38.5504 13.7328 38.7275 13.7292 38.9071V43.067C13.7292 43.4297 13.8756 43.7776 14.1362 44.0341C14.3967 44.2906 14.7501 44.4348 15.1186 44.4348C15.487 44.4348 15.8404 44.2906 16.101 44.0341C16.3615 43.7776 16.5079 43.4297 16.5079 43.067V38.9635C16.5136 38.7877 16.4837 38.6125 16.42 38.4482C16.3562 38.2838 16.2599 38.1336 16.1366 38.0063C16.0133 37.879 15.8654 37.7771 15.7017 37.7067C15.538 37.6362 15.3617 37.5985 15.183 37.5957H15.1615Z" fill="#15A085"/>
<path d="M18.9213 37.5958C18.7426 37.592 18.5649 37.623 18.3984 37.6869C18.2318 37.7507 18.0797 37.8463 17.9507 37.9681C17.8217 38.0899 17.7183 38.2355 17.6464 38.3966C17.5746 38.5577 17.5357 38.7312 17.532 38.9072V44.6392C17.532 45.002 17.6784 45.3499 17.9389 45.6064C18.1995 45.8629 18.5528 46.007 18.9213 46.007C19.2898 46.007 19.6432 45.8629 19.9037 45.6064C20.1643 45.3499 20.3106 45.002 20.3106 44.6392V38.9988C20.3164 38.823 20.2865 38.6478 20.2227 38.4835C20.159 38.3191 20.0626 38.1689 19.9393 38.0416C19.816 37.9143 19.6682 37.8124 19.5045 37.7419C19.3408 37.6714 19.1644 37.6337 18.9858 37.631L18.9213 37.5958Z" fill="#15A085"/>
</g>
<g clip-path="url(#clip1_4130_509)">
<path d="M18.5 45.5664C28.4778 45.5664 36.5664 37.4778 36.5664 27.5C36.5664 17.5222 28.4778 9.43359 18.5 9.43359C8.5222 9.43359 0.433594 17.5222 0.433594 27.5C0.433594 37.4778 8.5222 45.5664 18.5 45.5664Z" fill="#34B297"/>
<path d="M36.5664 27.7674C36.552 27.7457 36.5375 27.7312 36.5159 27.7096C33.9143 25.1152 31.32 22.5209 28.7256 19.9265C28.6461 19.8471 28.5666 19.7748 28.4872 19.7025C27.9235 19.2328 27.2586 19.0449 26.536 19.1172C25.9217 19.1822 25.3942 19.4568 24.9534 19.8976C21.8459 23.0123 18.7313 26.1197 15.6239 29.2344C15.4721 29.3789 15.5155 29.3861 15.3637 29.2344C14.2942 28.1648 13.2247 27.0881 12.1479 26.0258C11.4541 25.3392 10.6159 25.108 9.66918 25.3248C8.5852 25.5705 7.76137 26.5822 7.71801 27.6951C7.6891 28.4828 7.96371 29.1476 8.52016 29.7041C13.5354 34.7265 18.5579 39.749 23.5731 44.7715C23.5948 44.7931 23.6164 44.8148 23.6381 44.8221C31.0309 42.6324 36.4436 35.8467 36.5664 27.7674Z" fill="#15A085"/>
<path d="M15.4287 35.9261C14.9951 35.9261 14.5543 35.7599 14.2219 35.4275L8.41169 29.6174C7.4072 28.6129 7.4072 26.9797 8.41169 25.9752C9.41619 24.9707 11.0494 24.9707 12.0539 25.9752L15.4287 29.35L24.9461 19.8326C25.9506 18.8281 27.5838 18.8281 28.5883 19.8326C29.5927 20.8371 29.5927 22.4703 28.5883 23.4748L16.6355 35.4203C16.3031 35.7599 15.8695 35.9261 15.4287 35.9261ZM10.2328 26.5388C9.91482 26.5388 9.58962 26.6617 9.34392 26.9074C8.85251 27.3988 8.85251 28.1937 9.34392 28.6851L15.1541 34.4953C15.3058 34.647 15.5515 34.647 15.7033 34.4953L27.656 22.5426C28.1474 22.0511 28.1474 21.2562 27.656 20.7648C27.1646 20.2734 26.3697 20.2734 25.8783 20.7648L16.267 30.3761C16.0429 30.6002 15.7467 30.723 15.4287 30.723C15.1107 30.723 14.8144 30.6002 14.5904 30.3761L11.1217 26.9074C10.876 26.6617 10.558 26.5388 10.2328 26.5388Z" fill="white"/>
</g>
<defs>
<clipPath id="clip0_4130_509">
<rect width="22" height="36" fill="white" transform="translate(8 10)"/>
</clipPath>
<clipPath id="clip1_4130_509">
<rect width="37" height="37" fill="white" transform="translate(0 9)"/>
</clipPath>
</defs>
</svg>
